<?xml version="1.0" encoding="UTF-8" standalone="no"?>
<!-- Created with Inkscape (http://www.inkscape.org/) -->

<svg
   xmlns:osb="http://www.openswatchbook.org/uri/2009/osb"
   xmlns:dc="http://purl.org/dc/elements/1.1/"
   xmlns:cc="http://creativecommons.org/ns#"
   xmlns:rdf="http://www.w3.org/1999/02/22-rdf-syntax-ns#"
   xmlns:svg="http://www.w3.org/2000/svg"
   xmlns="http://www.w3.org/2000/svg"
   xmlns:sodipodi="http://sodipodi.sourceforge.net/DTD/sodipodi-0.dtd"
   xmlns:inkscape="http://www.inkscape.org/namespaces/inkscape"
   width="40"
   height="40"
   id="svg2"
   version="1.1"
   inkscape:version="0.48.4 r9939"
   sodipodi:docname="eyes.svg"
   inkscape:export-filename="/root/socifilm/app/assets/images/eyes.png"
   inkscape:export-xdpi="90"
   inkscape:export-ydpi="90">
  <defs
     id="defs4">
    <linearGradient
       id="linearGradient5392">
      <stop
         style="stop-color:#9aff14;stop-opacity:1;"
         offset="0"
         id="stop5394" />
      <stop
         id="stop5400"
         offset="0.82191783"
         style="stop-color:#9aff14;stop-opacity:0.49803922;" />
      <stop
         style="stop-color:#9aff14;stop-opacity:0.24705882;"
         offset="0.89266282"
         id="stop5402" />
      <stop
         style="stop-color:#9aff14;stop-opacity:0;"
         offset="1"
         id="stop5396" />
    </linearGradient>
    <linearGradient
       id="linearGradient5317"
       osb:paint="solid">
      <stop
         style="stop-color:#000000;stop-opacity:1;"
         offset="0"
         id="stop5319" />
    </linearGradient>
  </defs>
  <sodipodi:namedview
     id="base"
     pagecolor="#ffffff"
     bordercolor="#666666"
     borderopacity="1.0"
     inkscape:pageopacity="0.0"
     inkscape:pageshadow="2"
     inkscape:zoom="19.2"
     inkscape:cx="20"
     inkscape:cy="22.881802"
     inkscape:document-units="px"
     inkscape:current-layer="layer1"
     showgrid="false"
     inkscape:snap-bbox="true"
     inkscape:bbox-paths="true"
     inkscape:bbox-nodes="true"
     inkscape:snap-bbox-edge-midpoints="true"
     inkscape:snap-bbox-midpoints="true"
     inkscape:snap-nodes="true"
     inkscape:object-paths="true"
     inkscape:snap-intersection-paths="true"
     inkscape:object-nodes="true"
     inkscape:snap-smooth-nodes="true"
     inkscape:snap-midpoints="true"
     inkscape:snap-global="false"
     inkscape:window-width="1301"
     inkscape:window-height="744"
     inkscape:window-x="65"
     inkscape:window-y="24"
     inkscape:window-maximized="1" />
  <metadata
     id="metadata7">
    <rdf:RDF>
      <cc:Work
         rdf:about="">
        <dc:format>image/svg+xml</dc:format>
        <dc:type
           rdf:resource="http://purl.org/dc/dcmitype/StillImage" />
        <dc:title></dc:title>
      </cc:Work>
    </rdf:RDF>
  </metadata>
  <g
     inkscape:label="Layer 1"
     inkscape:groupmode="layer"
     id="layer1"
     transform="translate(0,-1012.3622)">
    <path
       sodipodi:type="arc"
       style="fill:#ffffff;fill-opacity:1;fill-rule:nonzero;stroke:#ffffff;stroke-opacity:1"
       id="path3877"
       sodipodi:cx="19.96875"
       sodipodi:cy="15.59375"
       sodipodi:rx="3.40625"
       sodipodi:ry="3.40625"
       d="m 23.375,15.59375 a 3.40625,3.40625 0 1 1 -6.8125,0 3.40625,3.40625 0 1 1 6.8125,0 z"
       transform="matrix(2.4218014,0,0,2.4218014,-22.373647,995.90147)" />
    <path
       sodipodi:type="arc"
       style="fill:#ffffff;fill-opacity:1;stroke:#ffffff;stroke-opacity:1"
       id="path3875"
       sodipodi:cx="12"
       sodipodi:cy="6.1875"
       sodipodi:rx="2.0625"
       sodipodi:ry="2.0625"
       d="m 14.0625,6.1875 a 2.0625,2.0625 0 1 1 -4.125,0 2.0625,2.0625 0 1 1 4.125,0 z"
       transform="matrix(3.5400901,0,0,3.5400901,-29.952881,1013.4562)" />
    <path
       sodipodi:type="arc"
       style="fill:#ffffff;fill-opacity:1;fill-rule:nonzero;stroke:#000000;stroke-width:0.67884928;stroke-linecap:round;stroke-miterlimit:4;stroke-opacity:1;stroke-dasharray:none"
       id="path4176"
       sodipodi:cx="12.374368"
       sodipodi:cy="23.824934"
       sodipodi:rx="0.70710677"
       sodipodi:ry="0.70710677"
       d="m 13.081474,23.824934 a 0.70710677,0.70710677 0 1 1 -1.414213,0 0.70710677,0.70710677 0 1 1 1.414213,0 z"
       transform="matrix(2.946162,0,0,2.946162,-23.110255,966.21602)" />
    <path
       transform="matrix(2.946162,0,0,2.946162,-9.6752265,964.35985)"
       sodipodi:type="arc"
       style="fill:#ffffff;fill-opacity:1;fill-rule:nonzero;stroke:#000000;stroke-width:0.67884928;stroke-linecap:round;stroke-miterlimit:4;stroke-opacity:1;stroke-dasharray:none"
       id="path4176-4"
       sodipodi:cx="12.374368"
       sodipodi:cy="23.824934"
       sodipodi:rx="0.70710677"
       sodipodi:ry="0.70710677"
       d="m 13.081474,23.824934 a 0.70710677,0.70710677 0 1 1 -1.414213,0 0.70710677,0.70710677 0 1 1 1.414213,0 z" />
    <path
       style="fill:#ffffff;fill-opacity:1;stroke:none"
       d="m 11.563753,1035.6583 c -0.227734,-0.05 -0.450378,-0.099 -0.494764,-0.1085 -0.07802,-0.016 -0.08028,-0.018 -0.06809,-0.059 0.06537,-0.2184 0.306716,-0.5879 0.521377,-0.7982 l 0.08595,-0.084 0.07388,0.043 c 0.09082,0.053 0.332657,0.2794 0.504741,0.472 l 0.128408,0.1437 -0.07896,0.1086 c -0.04343,0.06 -0.111135,0.169 -0.150466,0.243 -0.03933,0.074 -0.07972,0.1336 -0.08976,0.1326 -0.01004,-10e-4 -0.204581,-0.043 -0.432316,-0.093 z"
       id="path7096"
       inkscape:connector-curvature="0" />
    <path
       style="fill:#ffffff;fill-opacity:1;stroke:none"
       d="m 24.918499,1033.8885 c -0.227734,-0.05 -0.450378,-0.099 -0.494764,-0.1085 -0.07802,-0.016 -0.08028,-0.018 -0.06809,-0.059 0.06537,-0.2184 0.306716,-0.5879 0.521377,-0.7982 l 0.08595,-0.084 0.07388,0.043 c 0.09082,0.053 0.332657,0.2794 0.504741,0.472 l 0.128408,0.1437 -0.07896,0.1086 c -0.04343,0.06 -0.111135,0.169 -0.150466,0.243 -0.03933,0.074 -0.07972,0.1336 -0.08976,0.1326 -0.01004,-10e-4 -0.204581,-0.043 -0.432316,-0.093 z"
       id="path7096-3"
       inkscape:connector-curvature="0" />
  </g>
</svg>
